<svg version="1.2" xmlns="http://www.w3.org/2000/svg" viewBox="0 0 1200 895" width="1200" height="895">
	<style>
		.s0 { fill: #05baf6 } 
		.s1 { opacity: 1;fill: #fefefe } 
		.s2 { fill: #3dc2ec } 
	</style>
	<g id="Layer 1">
		<g id="Background">
			<path id="Path 1" fill-rule="evenodd" class="s0" d="m580.5 75.5c-6.6 0.77-17.4 2.33-24 3.47-6.6 1.14-18.52 3.68-26.5 5.65-7.98 1.97-19.9 5.36-26.5 7.55-6.6 2.18-16.95 6-23 8.49-6.05 2.48-15.27 6.52-20.5 8.97-5.23 2.45-14.35 7.25-20.28 10.66-5.93 3.42-10.76 6.55-10.75 6.96 0.02 0.41 0.14 0.76 0.28 0.77 0.14 0.01 5.43-2.42 11.75-5.4 6.32-2.99 16.68-7.45 23-9.91 6.32-2.47 18.25-6.52 26.5-9 8.25-2.49 21.75-5.91 30-7.6 8.25-1.69 20.17-3.79 26.5-4.66 6.35-0.88 22.47-1.85 36-2.16 15.74-0.36 29.33-0.13 38 0.64 7.42 0.67 17.77 1.87 23 2.68 5.23 0.8 13.77 2.36 19 3.46 5.23 1.11 14.45 3.33 20.5 4.94 6.05 1.61 16.63 4.92 23.5 7.35 6.88 2.43 16.33 6.07 21 8.09 4.67 2.03 13.9 6.33 20.5 9.56 6.6 3.23 16.95 8.87 23 12.54 6.05 3.67 15.27 9.61 20.5 13.21 5.23 3.6 15.13 11.16 22 16.8 6.88 5.65 19.73 17.62 28.56 26.6 8.84 8.99 19.64 20.91 24 26.51 4.37 5.59 10.64 14.09 13.94 18.9 3.3 4.81 8.63 13.06 11.84 18.33 3.21 5.28 9.13 16.35 13.16 24.6 4.03 8.25 9.35 19.95 11.81 26 2.46 6.05 6.29 16.4 8.5 23 2.21 6.6 4.4 13.7 4.85 15.77l0.84 3.77c-27.12-9.24-44.45-14.63-56-17.94-11.55-3.32-28.42-7.83-37.5-10.04-9.08-2.21-27.75-6.25-41.5-8.98-13.75-2.74-34.45-6.32-46-7.97-11.55-1.65-28.2-3.7-37-4.55-8.8-0.86-23.2-2.01-32-2.56-8.8-0.55-25.9-1-38-1-12.1 0.01-29.42 0.46-38.5 1.02-9.08 0.55-22.58 1.69-30 2.52-7.42 0.84-19.12 2.4-26 3.47-6.87 1.06-18.12 3.08-25 4.48-6.87 1.4-19.48 4.36-28 6.57-8.52 2.21-21.57 6.08-29 8.6-7.43 2.52-17.89 6.44-23.25 8.71-5.37 2.27-9.64 4.23-9.5 4.35 0.14 0.12 6.55-1.53 14.25-3.67 7.7-2.14 18.73-5.01 24.5-6.38 5.77-1.37 16.13-3.64 23-5.05 6.88-1.4 17.9-3.48 24.5-4.61 6.6-1.13 19.88-2.94 29.5-4.02 9.63-1.08 28.3-2.49 41.5-3.14 18.29-0.88 29.59-0.89 47.5 0 12.92 0.64 29.58 1.83 37 2.64 7.42 0.82 16.65 1.95 20.5 2.53 3.85 0.58 9.92 1.53 13.5 2.11 3.58 0.58 11 1.94 16.5 3.02 5.5 1.07 16.3 3.53 24 5.46 7.7 1.93 18.05 4.62 23 5.99 4.95 1.37 15.3 4.55 23 7.07 7.7 2.52 14.45 5.02 15 5.57q0.99 0.98-1 0.41c-1.1-0.31-13.7-2.16-28-4.12-14.3-1.95-32.3-4.25-40-5.11-7.7-0.86-27.05-1.81-43-2.12-18.76-0.37-33.76-0.15-42.5 0.61-7.42 0.65-16.53 1.72-20.23 2.39-3.71 0.66-6.41 1.5-6 1.86 0.4 0.37 5.9 1.18 12.23 1.82 6.33 0.63 18.92 2.04 28 3.12 9.08 1.08 24.15 3.34 33.5 5.01 9.35 1.68 21.95 4.12 28 5.43 6.05 1.3 15.05 3.32 20 4.49 4.95 1.17 16.65 4.32 26 7 9.35 2.68 21.27 6.29 26.5 8.01 5.23 1.73 16.02 5.61 24 8.63 7.98 3.02 17.65 6.86 21.5 8.54 3.85 1.69 9.92 4.39 13.5 6.01 3.58 1.63 12.58 6 20 9.72 7.42 3.73 18.9 9.83 25.5 13.58 6.6 3.74 17.06 9.88 23.25 13.64l11.25 6.84c0.01 10.46-0.68 20.7-1.52 29.5-0.83 8.8-1.99 18.93-2.57 22.5-0.58 3.57-1.94 11-3.03 16.5-1.09 5.5-2.89 13.6-3.99 18-1.09 4.4-3.73 13.4-5.84 20-2.12 6.6-5.52 16.27-7.56 21.5-2.03 5.23-7.21 16.7-11.51 25.5-4.29 8.8-10.49 20.5-13.77 26-3.29 5.5-9.68 15.17-14.2 21.5-4.53 6.33-11.67 15.77-15.87 20.98-4.2 5.21-14.05 16.01-21.88 24-7.83 7.99-18.12 17.67-22.88 21.52-4.76 3.85-9.16 7.45-9.79 8-0.63 0.55-2.93 2.39-5.11 4.09-2.19 1.7-8.93 6.46-14.98 10.57-6.05 4.11-17.08 10.89-24.5 15.07-7.42 4.19-18.9 10.07-25.5 13.09-6.6 3.01-16.27 7.14-21.5 9.18-5.23 2.04-14.23 5.19-20 6.99-5.77 1.81-13.88 4.22-18 5.36-4.13 1.14-13.13 3.2-20 4.57-6.88 1.37-19.02 3.27-27 4.24-10.27 1.23-21.94 1.74-40 1.74-18.06 0-29.73-0.51-40-1.74-7.98-0.97-20.13-2.87-27-4.24-6.88-1.37-19.25-4.31-27.5-6.55-8.25-2.23-19.95-5.87-26-8.09-6.05-2.22-15.5-6.04-21-8.48-5.5-2.45-14.05-6.52-19-9.04-4.95-2.52-13.27-7.04-18.5-10.05-5.23-3-14.45-8.84-20.5-12.97-6.05-4.13-14.49-10.15-18.75-13.37-4.26-3.23-8.26-5.76-8.88-5.62-0.62 0.14 2.87 3.92 7.75 8.4 4.88 4.48 11.36 10.15 14.38 12.6 3.02 2.45 10.9 8.26 17.5 12.91 6.6 4.66 16.73 11.31 22.5 14.79 5.77 3.48 14.55 8.49 19.5 11.13 4.95 2.64 14.62 7.24 21.5 10.22 6.87 2.98 16.55 6.89 21.5 8.68 4.95 1.79 12.37 4.34 16.5 5.68 4.12 1.33 14.48 4.16 23 6.29 8.52 2.12 21.35 4.83 28.5 6.01 7.15 1.18 20.87 2.8 30.5 3.58 9.62 0.79 22.9 1.44 29.5 1.44 6.6 0.01 19.42-0.65 28.5-1.45 9.08-0.8 19.87-1.93 24-2.5 4.12-0.58 12.23-1.96 18-3.08 5.77-1.13 15.45-3.36 21.5-4.97 6.05-1.61 17.08-4.93 24.5-7.37 7.42-2.44 18.67-6.67 25-9.4 6.33-2.74 15.55-6.91 20.5-9.28 4.95-2.36 13.73-6.97 19.5-10.24 5.77-3.27 15.67-9.4 22-13.63 6.33-4.23 16.53-11.49 22.67-16.13 6.14-4.64 16.88-13.6 23.86-19.93 6.98-6.33 16.62-15.77 21.42-21 4.8-5.23 10.29-11.3 12.2-13.5 1.91-2.2 6.18-7.6 9.49-12 3.3-4.4 8.29-11.15 11.08-15 2.78-3.85 8.19-12.17 12.02-18.5 3.82-6.33 9.24-15.77 12.04-21 2.8-5.23 7.54-15.13 10.54-22 2.99-6.88 7.99-19.92 11.1-29 3.12-9.08 7.21-22.8 9.1-30.5 1.89-7.7 4.32-19.17 5.4-25.5 1.07-6.32 2.66-17.91 3.52-25.75 0.94-8.56 1.56-23.04 1.56-36.25 0-12.74-0.65-28.21-1.54-36.75-0.84-8.11-2.43-19.93-3.53-26.25-1.1-6.32-3.13-16.23-4.51-22-1.38-5.77-3.88-15.23-5.56-21-1.68-5.77-4.86-15.45-7.08-21.5-2.21-6.05-6.03-15.73-8.49-21.5-2.45-5.77-6.53-14.55-9.07-19.5-2.53-4.95-7.51-13.95-11.06-20-3.55-6.05-10.13-16.4-14.62-23-4.49-6.6-11.96-16.73-16.6-22.5-4.64-5.78-11.81-14.1-15.92-18.5-4.12-4.4-10.64-11.11-14.5-14.91-3.86-3.8-11.52-10.79-17.02-15.52-5.5-4.73-13.6-11.34-18-14.68-4.4-3.34-12.73-9.2-18.5-13.03-5.77-3.82-14.77-9.46-20-12.53-5.23-3.07-14-7.84-19.5-10.59-5.5-2.76-15.4-7.29-22-10.08-6.6-2.78-18.08-7.09-25.5-9.57-7.42-2.48-18.67-5.83-25-7.44-6.33-1.62-18.02-4.12-26-5.55-7.98-1.44-17.88-3.09-22-3.68-4.13-0.58-21.45-1.23-38.5-1.44-22.38-0.28-34.34 0.01-43 1.02zm-26 43.2c-2.2 0.19-9.17 1.04-15.5 1.88-6.33 0.84-17.8 2.9-25.5 4.57-7.7 1.68-21.2 5.44-30 8.35-8.8 2.91-20.27 7.19-25.5 9.49-5.23 2.3-14.68 6.82-21 10.05-6.32 3.22-16 8.67-21.5 12.1-5.5 3.44-14.5 9.5-20 13.46-5.5 3.97-14.5 10.97-19.99 15.56-5.5 4.59-14.28 12.63-19.5 17.86-5.23 5.24-12.91 13.57-17.07 18.5-4.15 4.94-10.48 12.8-14.06 17.48-3.58 4.67-10.44 14.8-15.24 22.5-4.81 7.7-11.83 20.3-15.61 28-3.78 7.7-8.66 18.5-10.84 24-2.18 5.5-5.54 14.95-7.45 21-1.92 6.05-4.87 17.07-6.56 24.5-1.69 7.42-3.82 18.23-4.74 24q-1.68 10.5-2.15 36.5c-0.38 20.63-0.14 28.58 1.18 38.5 0.91 6.87 1.97 13.1 2.34 13.83 0.5 0.97 2.48-0.17 7.19-4.14l6.5-5.48c1.05-19.15 2.27-29.21 3.38-34.71 1.12-5.5 3.44-14.05 5.17-19 1.73-4.95 5.18-13.05 7.67-18 2.48-4.95 7.27-13.05 10.63-18 3.66-5.38 11.35-14.25 19.13-22.05 7.16-7.18 16.39-15.54 20.52-18.57 4.12-3.03 12.9-8.9 19.5-13.05 6.6-4.14 14.7-9.02 18-10.84l6-3.31c-11.7 13.04-17.22 19.41-19.8 22.57-2.59 3.16-4.71 6.09-4.73 6.5-0.01 0.41 0.21 1.09 0.5 1.5 0.29 0.41 4.02-0.89 8.28-2.89 4.26-2 14.95-6.77 23.75-10.6 8.8-3.83 21.4-9 28-11.49 6.6-2.49 18.98-6.73 27.5-9.42 8.52-2.69 23.6-6.92 33.5-9.41 9.9-2.48 26.33-6.05 36.5-7.92 10.17-1.88 25.7-4.33 34.5-5.45 8.8-1.11 25.34-2.71 36.75-3.55 11.41-0.84 31.66-1.52 45-1.52 13.34 0 33.92 0.67 45.75 1.49 11.83 0.81 27.35 2.17 34.5 3 7.15 0.84 17.95 2.2 24 3.03 6.05 0.83 15.05 2.21 20 3.07 4.95 0.86 19.13 3.54 31.5 5.97 12.38 2.42 35.1 7.63 50.5 11.57 15.4 3.93 29.46 7.32 31.25 7.51 1.79 0.2 3.26 0.25 3.27 0.11 0.01-0.14-1.36-3.63-3.05-7.75-1.69-4.13-5.82-12.68-9.17-19-3.36-6.32-8.81-15.77-12.12-21-3.32-5.23-7.86-12.2-10.1-15.49-2.25-3.3-6.23-8.7-8.85-12-2.62-3.31-6.44-8.02-8.5-10.48-2.05-2.46-6.27-7.18-9.37-10.5-3.1-3.32-9.63-9.92-14.5-14.67-4.87-4.75-11.78-11.08-15.36-14.06-3.58-2.99-9.42-7.66-13-10.39-3.58-2.73-11.67-8.41-18-12.62-6.33-4.21-14.88-9.52-19-11.79-4.13-2.28-12-6.3-17.5-8.94-5.5-2.64-15.17-6.84-21.5-9.32-6.33-2.49-16.67-6.13-23-8.1-6.33-1.97-16.23-4.67-22-6.01-5.77-1.33-13.65-2.96-17.5-3.6-3.85-0.65-12.4-1.82-19-2.6-7.7-0.91-20.6-1.36-36-1.25-13.2 0.08-25.8 0.32-28 0.52zm-69.5 273.94c-1.93 0.17-10.25 0.79-18.5 1.38-8.25 0.59-21.52 1.98-29.5 3.1-7.98 1.12-20.13 3.17-27 4.55-6.88 1.39-17.68 4.02-24 5.85-6.32 1.82-15.55 5.03-20.5 7.12-4.95 2.1-12.38 6.02-16.5 8.72-4.13 2.71-9.52 6.52-12 8.47-2.48 1.95-7.37 6.5-10.87 10.11-3.5 3.61-8.3 9.26-10.67 12.56-2.37 3.3-5.98 9.37-8.02 13.5-2.05 4.12-4.8 10.65-6.13 14.5-1.32 3.85-3.06 10.04-3.86 13.75-0.8 3.71-1.45 7.43-1.45 8.25 0 0.82 0.56 1.51 1.25 1.51 0.69 0.01 6.87-2.27 13.75-5.06 6.87-2.78 17.45-6.56 23.5-8.39 6.05-1.82 13.02-3.63 15.5-4.02 4.08-0.64 4.31-0.58 2.5 0.72-1.1 0.79-5.82 3.4-10.5 5.81-4.68 2.4-13 7.01-18.5 10.25-5.5 3.23-13.6 8.38-18 11.45-4.4 3.07-12.16 8.88-17.25 12.91-5.09 4.02-9.25 7.88-9.25 8.57 0 0.99 7.25 1.11 34.75 0.56 20.91-0.41 33.56-0.33 31.75 0.21-1.65 0.5-11.77 2.31-22.5 4.04-10.73 1.73-26.7 4.95-35.5 7.14-8.8 2.2-20.61 5.76-26.25 7.9-5.64 2.15-13.4 5.48-17.25 7.4-3.85 1.92-10.26 5.54-14.25 8.03-7.03 4.38-7.26 4.45-7.58 2.25-0.18-1.26 0.65-7.45 1.84-13.78 1.2-6.33 4.2-17.58 6.67-25 2.48-7.42 5.14-14.74 5.91-16.25 0.78-1.51 1.2-3.09 0.93-3.5-0.26-0.41-1.05-0.24-1.75 0.38-0.7 0.63-3.6 4.9-6.44 9.5-2.84 4.6-6.82 11.97-8.85 16.37-2.03 4.4-4.81 11.15-6.17 15-1.37 3.85-3.55 11.5-4.84 17-1.3 5.5-2.88 13.6-3.5 18-0.62 4.4-0.98 9.5-0.8 11.34l0.33 3.33c10.07-7.65 16.6-12.23 21-15.12 4.4-2.88 14.75-8.59 23-12.68 8.75-4.33 21.25-9.49 30-12.36 8.25-2.71 19.5-5.86 25-7 5.5-1.14 14.73-2.75 20.5-3.58 5.77-0.83 19.27-1.78 30-2.1 14.55-0.43 23.69-0.15 36 1.09 9.07 0.92 23.02 2.79 31 4.15 7.98 1.37 21.7 4.26 30.5 6.42 8.8 2.17 17.8 4.64 20 5.49 3.37 1.31 3.52 1.49 1 1.1-1.65-0.25-10.43-1.23-19.5-2.19-11.3-1.19-25.32-1.76-44.5-1.8-16.04-0.04-33.34 0.48-40.5 1.21-6.88 0.7-17.68 2.18-24 3.29-6.32 1.1-18.48 3.76-27 5.9-8.52 2.14-20.45 5.75-26.5 8.02-6.05 2.27-15.73 6.34-21.5 9.06-5.77 2.72-10.27 5.18-10 5.48 0.27 0.3 5.45-0.13 11.5-0.95 6.05-0.83 15.27-1.96 20.5-2.53 5.23-0.56 16.02-1.55 24-2.19 9.22-0.74 24.89-0.96 43-0.59 15.68 0.32 34.35 1.28 41.5 2.14 7.15 0.86 16.15 2.04 20 2.63 3.85 0.58 12.85 2.2 20 3.58 7.15 1.38 18.18 3.87 24.5 5.52 6.32 1.65 16.45 4.6 22.5 6.55 6.05 1.94 15.95 5.46 22 7.82 6.05 2.35 14.6 5.91 19 7.9 4.4 1.99 12.95 6.16 19 9.26 6.05 3.1 15.73 8.52 21.5 12.05 5.77 3.54 14.77 9.5 20 13.24 5.23 3.75 12.91 9.68 17.07 13.17 4.17 3.49 10.24 8.78 13.5 11.74 3.26 2.96 5.26 5.03 4.43 4.59-0.83-0.43-4.42-2.92-8-5.52-3.58-2.6-12.35-8.56-19.5-13.26-7.15-4.69-19.52-12.07-27.5-16.4-7.98-4.33-20.58-10.62-28-13.98-7.42-3.36-17.77-7.69-23-9.63-5.23-1.93-12.43-4.5-16-5.7-3.57-1.19-11.9-3.72-18.5-5.61-6.6-1.89-16.73-4.51-22.5-5.82-5.77-1.31-15.68-3.31-22-4.43-6.32-1.13-17.57-2.77-25-3.64-7.43-0.86-22.73-1.84-34-2.16-14.85-0.42-25.6-0.14-39 1.03-10.18 0.89-19.97 1.95-21.77 2.38-1.8 0.42-3.27 0.99-3.27 1.26 0 0.27 1.95 3.42 4.33 7 2.37 3.58 6.32 9.01 8.76 12.09 2.45 3.07 6.87 8.47 9.82 12 2.95 3.52 9.03 10.21 13.5 14.85 4.47 4.64 12.21 12.06 17.19 16.5 4.99 4.43 13.54 11.48 19 15.66 5.47 4.17 13.99 10.29 18.94 13.59 4.95 3.3 13.73 8.63 19.5 11.85 5.77 3.21 15.23 8.07 21 10.78 5.77 2.72 15 6.69 20.5 8.82 5.5 2.14 16.07 5.65 23.5 7.8 7.43 2.15 18 4.87 23.5 6.05 5.5 1.17 16.08 3.03 23.5 4.13 7.87 1.16 21.85 2.23 33.5 2.56 11.98 0.35 26.22 0.1 35.5-0.61 8.52-0.65 20.67-2.08 27-3.16 6.33-1.08 17.58-3.51 25-5.4 7.42-1.88 18-4.96 23.5-6.84 5.5-1.89 14.61-5.28 20.25-7.55 5.64-2.27 15.65-6.82 22.25-10.12 6.6-3.3 16.61-8.74 22.25-12.09 5.64-3.34 15.87-10.18 22.75-15.18 6.87-5.01 16.77-12.78 22-17.29 5.23-4.5 14.41-13.3 20.4-19.56 6-6.26 11.63-12.46 12.5-13.78 1.57-2.36 1.48-2.52-5.4-8.89-3.85-3.57-12.4-11.08-19-16.69-6.6-5.6-16.5-13.78-22-18.16-5.5-4.38-15.85-12.16-23-17.28-7.15-5.12-17.95-12.57-24-16.54-6.05-3.97-15.5-9.93-21-13.24-5.5-3.3-12.92-7.66-16.5-9.69-3.58-2.03-13.92-7.4-23-11.95-9.08-4.55-22.58-10.88-30-14.07-7.42-3.18-21.38-8.41-31-11.61-9.63-3.2-24.02-7.42-32-9.39-7.98-1.96-21.02-4.66-29-6.01-7.98-1.34-19.9-2.95-26.5-3.58-6.6-0.63-18.98-1.22-27.5-1.32-8.52-0.1-22.48 0.14-31 0.52-14.47 0.66-15.17 0.61-10.5-0.73 2.75-0.79 10.4-2.54 17-3.89 6.6-1.36 15.15-2.94 19-3.52 3.85-0.57 11.95-1.53 18-2.11 6.05-0.59 21.35-1.07 34-1.08 13.96 0 29.49 0.64 39.5 1.63 9.08 0.9 24.37 2.97 34 4.6 9.62 1.63 24.25 4.54 32.5 6.46 8.25 1.91 19.95 4.84 26 6.5 6.05 1.66 17.86 5.25 26.25 7.98 8.39 2.73 16.04 5.09 17 5.24 0.96 0.15 2.42 0.68 3.25 1.17 0.83 0.5 0.61-0.11-0.5-1.36-1.1-1.24-6.95-5.56-13-9.6-6.05-4.04-17.52-10.73-25.5-14.86-7.98-4.13-20.58-9.97-28-12.98-7.42-3-19.35-7.29-26.5-9.53-7.15-2.23-18.4-5.38-25-6.98-6.6-1.61-17.63-3.86-24.5-5.01-6.88-1.14-17.23-2.54-23-3.11-5.77-0.57-14.1-1.06-18.5-1.1-4.4-0.03-8.9-0.4-10-0.81-1.44-0.53 0.82-1.36 8-2.94 5.5-1.2 20.58-4.03 33.5-6.27 12.92-2.25 23.73-4.24 24-4.44 0.27-0.2-6.7-0.67-15.5-1.04-8.8-0.37-24.55-0.37-35 0.01-10.45 0.38-25.52 1.35-33.5 2.16-7.98 0.81-19.9 2.38-26.5 3.49-6.6 1.1-18.98 3.55-27.5 5.43-8.52 1.89-20 4.82-25.5 6.51-5.5 1.7-13.15 3.95-17 5.01l-7 1.93c8.34-7.33 11.38-10.7 12.13-12.21 0.75-1.51 1.37-3.65 1.37-4.75 0-1.1-1.13-3.13-2.5-4.5-1.38-1.38-2.39-2.7-2.25-2.94 0.14-0.24 6.55-2.97 14.25-6.06 7.7-3.1 20.75-7.88 29-10.64 8.25-2.75 22.65-7.17 32-9.81 9.35-2.65 22.73-6.32 29.74-8.16 10.17-2.68 12.18-3.48 10-4-1.51-0.36-11.07-0.63-21.24-0.61-10.18 0.02-20.07 0.18-22 0.36zm-210 108.73c-4.13 2.92-10 8.19-13.05 11.72-3.06 3.52-6.32 7.65-7.25 9.16-0.94 1.51-1.7 3.2-1.7 3.75 0 0.55 0.79 0.99 1.75 0.97 0.96-0.02 3.32-0.99 5.25-2.16 1.93-1.17 4.8-3.29 6.39-4.72 1.6-1.42 6.22-7.09 10.28-12.59 4.06-5.5 7.37-10.34 7.36-10.75-0.02-0.41-0.37-0.74-0.78-0.72-0.41 0.02-4.13 2.42-8.25 5.34z"/>
			<path id="Path 3" fill-rule="evenodd" class="s1" d="m365.5 448.46c-4.95 2.45-11.54 6.38-14.65 8.75-3.11 2.36-9.52 7.78-14.25 12.04-4.73 4.26-8.34 8.09-8.02 8.5 0.31 0.41 2.23 0.62 4.25 0.45 2.02-0.16 7.49-1.12 12.17-2.13 4.68-1 11.88-3.38 16-5.28 4.92-2.26 9.15-5.14 12.3-8.37 2.64-2.71 5.27-6.49 5.84-8.42 0.57-1.92 0.88-4.85 0.7-6.5-0.27-2.36-0.87-3.05-2.84-3.24-1.38-0.13-6.55 1.76-11.5 4.2z"/>
			<path id="Path 4" fill-rule="evenodd" class="s2" d="m376.16 442.92c-1 0.67-0.75 0.98 1 1.24 1.88 0.27 2.46 1.13 2.95 4.34 0.57 3.76 0.61 3.81 0.75 0.75 0.08-1.79-0.31-4.15-0.86-5.25-0.55-1.1-1.34-1.99-1.75-1.98-0.41 0-1.35 0.41-2.09 0.9zm2.57 12.08c-0.33 1.37-2.99 4.96-5.91 7.98-3.67 3.77-4.28 4.7-1.98 3 1.84-1.37 4.7-4.28 6.35-6.48 1.65-2.2 2.81-4.68 2.57-5.5-0.27-0.97-0.64-0.62-1.03 1zm-47.5 17.78c-2.9 2.6-5.26 5.06-5.25 5.47 0.01 0.41 1.03 0.71 2.27 0.67 1.42-0.05 1.7-0.27 0.75-0.59-1.1-0.38-0.19-1.81 3.46-5.42 2.72-2.7 4.75-4.9 4.5-4.88-0.25 0.02-2.83 2.16-5.73 4.75z"/>
		</g>
	</g>
</svg>